<svg xmlns="http://www.w3.org/2000/svg" viewBox="0 0 360 360" role="img" aria-label="Strido">
  <rect width="360" height="360" rx="82" fill="#ea580c"/>
  <g transform="translate(24,338) scale(0.1,-0.1)">
    <path fill="#fff8ed" d="M1310 2758 c-62 -6 -113 -18 -148 -33 -29 -13 -68 -27 -88 -31 -45 -8 -181 -98 -250 -164 -62 -60 -158 -229 -169 -300 -4 -25 -18 -76 -31 -115 -31 -89 -46 -223 -38 -339 8 -122 43 -195 132 -277 75 -68 124 -89 290 -123 187 -39 256 -46 747 -76 183 -11 285 -34 345 -75 117 -81 120 -188 8 -309 -52 -56 -71 -69 -140 -96 l-80 -30 -341 -6 -342 -6 -75 25 c-146 49 -160 63 -168 182 -7 111 9 105 -299 105 l-264 0 -24 -24 c-17 -17 -25 -39 -30 -82 -3 -33 -10 -86 -15 -120 -22 -135 -6 -235 47 -303 16 -20 36 -47 45 -61 8 -14 53 -48 98 -74 65 -39 106 -54 202 -77 l120 -29 587 0 586 0 150 34 c197 45 296 91 397 185 80 75 155 193 188 298 10 32 26 77 34 101 27 72 49 248 44 353 -4 75 -10 107 -31 153 -32 70 -133 178 -201 215 -27 14 -58 31 -70 38 -12 7 -100 25 -196 42 -225 38 -230 38 -455 56 -104 8 -226 20 -270 26 -114 16 -291 60 -326 81 -37 22 -59 72 -59 131 0 37 8 54 49 108 27 36 73 82 104 103 52 36 60 38 168 48 133 11 599 4 678 -12 98 -18 131 -56 142 -158 11 -104 6 -102 294 -96 254 6 297 12 320 48 17 26 31 245 21 328 -9 69 -46 130 -133 215 -46 45 -77 66 -116 79 -28 9 -65 23 -82 32 -63 32 -252 42 -765 40 -272 0 -538 -5 -590 -10z"/>
  </g>
</svg>
