<svg xmlns="http://www.w3.org/2000/svg" viewBox="0 0 512.000000 512.000000">
<g transform="translate(0.000000,512.000000) scale(0.100000,-0.100000)"
fill="#fbf3e8" stroke="none">
<path d="M805 5093 c-85 -10 -180 -40 -270 -86 -55 -29 -104 -55 -110 -59 -5
-4 -24 -19 -41 -33 -18 -14 -34 -25 -38 -25 -21 0 -186 -191 -186 -215 0 -8
-6 -18 -13 -22 -16 -10 -77 -134 -77 -157 0 -9 -4 -16 -9 -16 -4 0 -14 -30
-22 -67 -11 -55 -14 -361 -16 -1630 l-3 -1563 25 0 c21 0 25 5 25 28 0 15 4
32 8 37 5 6 14 46 21 89 7 44 17 86 21 95 9 18 51 216 51 244 0 9 4 17 8 17 4
0 13 27 19 59 7 33 19 72 27 88 8 15 15 37 15 48 0 11 9 38 20 60 11 22 19 46
20 53 0 8 7 30 16 50 28 64 33 76 39 102 5 22 57 136 102 225 9 17 33 65 55
107 21 43 61 111 88 153 28 41 50 79 50 85 0 5 5 10 10 10 6 0 10 7 10 15 0 7
7 18 16 23 9 5 15 12 15 16 -2 11 90 136 100 136 5 0 9 5 9 11 0 15 147 186
176 206 13 8 24 20 24 25 0 11 122 126 151 143 10 5 47 36 82 68 35 31 68 57
73 57 4 0 19 11 33 24 34 31 145 105 196 131 22 11 43 25 48 32 4 6 21 14 37
18 17 4 30 10 30 14 0 4 57 34 128 65 70 32 136 62 147 67 37 17 328 109 346
109 10 0 20 4 23 9 3 4 40 14 83 21 43 7 83 16 88 19 6 3 18 4 27 3 10 -2 26
1 36 7 10 5 88 17 173 26 108 11 161 21 178 33 13 9 32 22 43 28 11 6 32 23
47 38 15 14 32 26 38 26 6 0 13 3 15 8 5 11 125 112 134 112 4 0 28 19 54 43
26 23 66 56 89 72 50 36 95 70 144 108 48 38 85 42 93 11 8 -32 -13 -241 -28
-284 -3 -8 -11 -42 -18 -75 -7 -33 -16 -64 -20 -70 -4 -5 -18 -45 -30 -87 -13
-43 -27 -78 -31 -78 -5 0 -9 -13 -9 -30 0 -16 5 -30 10 -30 6 0 10 -7 10 -15
0 -8 6 -15 13 -15 7 0 35 -20 64 -45 28 -25 55 -45 61 -45 9 0 182 -176 182
-185 0 -2 27 -45 60 -94 33 -50 60 -94 60 -99 0 -6 7 -12 15 -16 8 -3 15 -12
15 -20 0 -7 7 -16 15 -20 8 -3 15 -10 15 -16 0 -6 11 -23 25 -38 14 -15 25
-32 25 -39 0 -7 5 -13 10 -13 6 0 15 -11 20 -25 5 -14 14 -25 20 -25 5 0 10
-7 10 -15 0 -9 7 -18 15 -21 8 -4 15 -11 15 -16 0 -9 119 -178 214 -303 25
-33 46 -65 46 -71 0 -7 7 -14 15 -18 8 -3 15 -12 15 -20 0 -7 7 -16 15 -20 8
-3 15 -10 15 -16 0 -6 11 -23 25 -38 14 -15 25 -30 25 -35 0 -8 11 -23 43 -58
9 -10 17 -21 17 -24 0 -3 36 -55 81 -116 45 -61 85 -125 90 -143 13 -44 11
-160 -3 -193 -6 -15 -12 -31 -13 -35 -2 -5 -4 -11 -5 -15 -1 -5 -2 -11 -1 -15
0 -5 -4 -8 -9 -8 -6 0 -10 -7 -10 -15 0 -26 -70 -149 -103 -181 -34 -32 -82
-66 -101 -71 -67 -17 -156 -24 -277 -21 -136 3 -148 5 -182 28 -20 14 -37 28
-37 32 0 4 -5 19 -11 35 -6 15 -11 51 -10 80 2 47 0 53 -26 70 -15 9 -30 20
-33 23 -3 4 -23 15 -45 26 -37 18 -123 72 -135 84 -3 3 -25 16 -50 29 -25 14
-67 42 -93 63 -27 21 -53 38 -59 38 -6 0 -36 17 -67 38 -92 63 -119 72 -236
83 -60 5 -117 13 -125 16 -8 4 -22 8 -30 9 -57 10 -182 59 -213 84 -38 29
-143 126 -147 135 -3 6 -11 18 -18 26 -7 8 -32 43 -55 79 -57 89 -71 89 -135
3 -59 -80 -122 -186 -122 -205 0 -7 -7 -25 -14 -40 -8 -15 -22 -60 -31 -100
-9 -40 -21 -85 -27 -100 -5 -14 -9 -39 -7 -55 1 -15 -2 -36 -6 -47 -11 -24 1
-324 13 -339 5 -7 13 -34 16 -62 12 -86 39 -166 82 -247 8 -14 14 -31 14 -37
0 -16 96 -185 149 -261 82 -118 207 -261 309 -352 121 -109 230 -198 240 -198
5 0 15 -7 23 -16 12 -15 155 -114 164 -114 3 0 27 -16 54 -35 26 -19 52 -35
56 -35 5 0 22 -10 39 -23 17 -12 51 -31 76 -42 25 -10 56 -26 70 -35 52 -34
303 -142 370 -160 25 -7 50 -15 55 -19 6 -5 33 -14 60 -21 28 -7 55 -16 60
-20 18 -13 157 -40 259 -50 134 -14 245 6 342 61 133 74 298 251 336 360 5 16
13 29 17 29 4 0 13 24 20 52 8 29 17 58 22 64 24 30 28 266 31 1954 3 1529 1
1805 -11 1863 -8 37 -18 67 -23 67 -4 0 -8 8 -8 19 0 20 -60 144 -73 149 -4 2
-7 9 -7 16 0 7 -22 42 -49 77 -43 58 -73 87 -191 187 -33 28 -178 105 -245
130 -16 6 -68 18 -114 27 -73 13 -295 15 -1810 14 -949 -1 -1739 -4 -1756 -6z"/>
</g>
</svg>
