<svg viewBox="70 45 925 925" xmlns="http://www.w3.org/2000/svg" style="fill-rule:evenodd;clip-rule:evenodd;stroke-linejoin:round;stroke-miterlimit:2">
    <path d="M95.463,243.022C94.261,338.926 91.09,683.839 95.463,780.07C96.113,794.374 101.592,808.894 105.967,820.936C109.952,831.905 115.893,842.583 121.713,852.324C127.408,861.857 133.836,871.029 141.186,879.352C149.028,888.233 160.119,898.46 168.766,905.609C176.332,911.864 184.372,917.69 193.067,922.247C202.784,927.34 216.233,932.795 227.071,936.166C237.147,939.299 246.033,941.338 258.094,942.468C353.687,951.43 706.643,950.301 803.08,944.586C817.818,943.713 827.603,941.021 838.914,937.258C850.302,933.469 860.767,927.69 871.406,921.855C882.411,915.819 894.251,907.255 903.715,899.357C912.649,891.901 920.98,883.599 928.192,874.467C935.625,865.056 943.113,852.977 948.312,842.892C953.043,833.713 958.145,824.175 961.099,815.143C962.706,810.228 964.104,804.894 965.005,799.549C966.001,793.637 965.806,794.947 966.033,788.701C969.525,692.249 968.307,333.966 966.033,234.902C965.69,219.971 961.74,203.857 958.192,194.212C954.46,184.065 946.596,167.136 942.24,160.177C937.251,152.205 928.354,139.961 922.513,133.373C915.433,125.387 903.782,113.813 895.569,107.374C887.738,101.233 874.468,92.579 864.981,87.255C857.538,83.079 852.2,80.219 845.126,77.591C838.089,74.977 831.381,72.32 822.54,71.49C725.372,62.367 357.048,67.242 259.587,71.49C252.119,71.816 244.123,72.69 237.229,74.419C234.491,75.105 225.651,77.666 220.075,79.883C214.09,82.263 203.514,87.617 201.321,88.696C197.226,90.708 179.795,101.76 177.407,103.665C175.018,105.569 154.142,122.424 151.981,124.55C149.82,126.676 131.416,147.452 129.482,151.149C127.549,154.847 119.496,165.016 114.27,176.113C109.528,186.184 105.006,193.666 101.773,204.273C97.789,217.342 95.626,230.007 95.463,243.022Z" style="fill:rgb(251,243,232);"/>
    <g transform="matrix(1,0,0,1,15.0027,-3.56134)">
        <path d="M404.161,504.782C404.915,504.007 405.614,502.555 405.858,501.794C406.355,500.244 406.337,500.133 406.643,498C410.061,474.213 418.186,414.557 421.441,396.379C422.208,392.094 424.558,388.035 427.125,384.624C429.692,381.212 433.147,378.205 436.842,375.909C440.693,373.515 445.392,370.457 450.233,370.26C480.358,369.037 588.149,368.436 617.591,368.568C620.799,368.583 623.959,369.742 626.886,371.054C629.913,372.41 633.46,374.533 635.754,376.706C637.897,378.736 639.616,381.406 640.648,384.087C641.68,386.769 641.822,389.861 641.945,392.792C642.162,397.917 641.795,410.765 641.945,414.838C641.977,415.688 642.347,416.537 642.849,417.225C643.381,417.955 644.271,418.698 645.14,419.219C646.062,419.771 647.265,420.201 648.382,420.541C649.533,420.891 650.799,421.315 652.048,421.322C674.135,421.452 758.691,421.647 780.902,421.322C782.509,421.299 784.27,420.401 785.481,419.496C786.78,418.526 787.62,417.571 788.563,416.465C789.585,415.267 790.738,413.752 791.443,412.183C792.293,410.29 793.218,407.541 793.661,405.111C794.479,400.621 795.692,392.393 796.351,385.244C797.449,373.344 797.8,344.871 797.313,333.496C797.071,327.852 795.462,321.978 793.906,316.977C792.464,312.342 790.366,307.719 787.979,303.491C785.546,299.183 782.151,295.05 778.833,291.15C775.321,287.02 771.197,282.528 766.902,278.712C762.319,274.641 756.85,270.26 751.338,266.726C745.66,263.085 739.29,259.54 732.832,256.869C726.328,254.178 719.377,252.012 713.53,250.503C708.744,249.268 702.874,248.226 697.748,247.816C649.697,243.976 472.27,245.82 423.106,247.816C415.771,248.114 408.872,249.296 402.531,250.346C396.654,251.318 390.689,252.439 385.06,254.112C379.479,255.772 373.995,257.493 368.588,259.653C363.069,261.858 356.71,264.789 351.946,267.34C347.705,269.611 343.34,272.677 339.46,275.522C335.145,278.685 330.543,282.503 326.057,286.32C321.431,290.259 316.154,295.223 312.415,299.322C309.147,302.905 306.036,306.759 303.253,310.731C300.278,314.975 297.13,319.894 294.569,324.785C291.836,330.006 289.425,336.324 287.226,342.241C284.786,348.809 281.978,357.141 279.926,364.195C277.973,370.909 276.428,377.738 274.914,384.564C273.382,391.476 271.928,398.595 270.731,405.665C269.383,413.629 267.83,424.484 266.823,432.345C265.951,439.154 265.167,446.104 264.692,452.829C264.224,459.439 264.007,467.19 264.324,472.727C264.599,477.538 265.439,482.733 266.64,486.601C267.543,489.51 269.494,493.735 270.624,496.105C272.17,499.347 273.864,500.88 275.491,502.402C277.278,504.074 279.505,504.775 282.072,504.901C301.898,505.872 366.731,506.541 395.33,506.774C398.298,506.799 399.414,506.751 401.43,506.369C402.259,506.211 403.637,505.321 404.161,504.782Z" style="fill:rgb(39,25,16);"/>
        <g transform="matrix(-1,1.22465e-16,-1.22465e-16,-1,1031.44,1022.48)">
            <path d="M382.339,506.66C382.339,506.66 382.298,507.354 382.608,500.386C382.736,497.487 383.538,493.343 385.245,486.39C386.287,482.146 387.911,477.2 390.648,472.23C393.849,466.418 399.564,461.15 403.694,457.579C408.455,453.462 413.092,452.211 413.709,447.864C416.705,426.733 419.739,405.885 421.441,396.379C422.208,392.094 424.558,388.035 427.125,384.624C429.692,381.212 433.147,378.205 436.842,375.909C440.693,373.515 445.392,370.457 450.233,370.26C480.358,369.037 588.149,368.436 617.591,368.568C620.799,368.583 623.959,369.742 626.886,371.054C629.913,372.41 633.46,374.533 635.754,376.706C637.897,378.736 639.616,381.406 640.648,384.087C641.68,386.769 641.822,389.861 641.945,392.792C642.162,397.917 641.795,410.765 641.945,414.838C641.977,415.688 642.347,416.537 642.849,417.225C643.381,417.955 644.271,418.698 645.14,419.219C646.062,419.771 647.265,420.201 648.382,420.541C649.533,420.891 650.799,421.315 652.048,421.322C674.135,421.452 758.691,421.647 780.902,421.322C782.509,421.299 784.27,420.401 785.481,419.496C786.78,418.526 787.62,417.571 788.563,416.465C789.585,415.267 790.738,413.752 791.443,412.183C792.293,410.29 793.218,407.541 793.661,405.111C794.479,400.621 795.692,392.393 796.351,385.244C797.449,373.344 797.8,344.871 797.313,333.496C797.071,327.852 795.462,321.978 793.906,316.977C792.464,312.342 790.366,307.719 787.979,303.491C785.546,299.183 782.151,295.05 778.833,291.15C775.321,287.02 771.197,282.528 766.902,278.712C762.319,274.641 756.85,270.26 751.338,266.726C745.66,263.085 739.29,259.54 732.832,256.869C726.328,254.178 719.377,252.012 713.53,250.503C708.744,249.268 702.874,248.226 697.748,247.816C649.697,243.976 472.27,245.82 423.106,247.816C415.771,248.114 408.872,249.296 402.531,250.346C396.654,251.318 390.689,252.439 385.06,254.112C379.479,255.772 373.995,257.493 368.588,259.653C363.069,261.858 356.71,264.789 351.946,267.34C347.705,269.611 343.34,272.677 339.46,275.522C335.145,278.685 330.543,282.503 326.057,286.32C321.431,290.259 316.154,295.223 312.415,299.322C309.147,302.905 306.036,306.759 303.253,310.731C300.278,314.975 297.13,319.894 294.569,324.785C291.836,330.006 289.425,336.324 287.226,342.241C284.786,348.809 281.978,357.141 279.926,364.195C277.973,370.909 276.428,377.738 274.914,384.564C273.382,391.476 271.928,398.595 270.731,405.665C269.383,413.629 267.83,424.484 266.823,432.345C265.951,439.154 265.167,446.104 264.692,452.829C264.224,459.439 264.007,467.19 264.324,472.727C264.599,477.538 265.439,482.733 266.64,486.601C267.543,489.51 269.494,493.735 270.624,496.105C272.17,499.347 273.864,500.88 275.491,502.402C277.278,504.074 279.505,504.775 282.072,504.901C299.288,505.744 382.339,506.66 382.339,506.66Z" style="fill:rgb(39,25,16);"/>
        </g>
        <path d="M494.817,422.616C496.147,423.257 497.87,424.252 499.461,425.386C522.922,442.099 584.924,488.108 602.457,501.159C604.345,502.565 606.222,504.433 607.574,506.026C608.775,507.442 609.879,509.4 610.569,510.721C611.098,511.735 611.531,512.827 611.71,513.957C611.908,515.2 612.005,516.921 611.755,518.178C611.517,519.375 610.999,520.488 610.431,521.569C609.752,522.861 608.677,524.107 607.348,525.351C606.223,526.402 604.834,527.644 603.121,528.666C573.675,546.22 489.221,595.096 466.401,608.374C465.231,609.055 463.988,609.711 462.747,610.029C461.003,610.476 460.104,610.467 458.864,610.422C457.516,610.373 455.964,610.267 454.708,609.945C453.519,609.64 452.076,609.459 451.021,608.834C449.101,607.697 448.361,606.929 447.316,605.996C446.397,605.175 445.68,603.954 445.057,602.891C444.425,601.813 444.019,600.418 443.805,599.106C443.572,597.683 443.604,595.934 443.661,594.348C443.728,592.472 443.875,589.995 444.208,587.845C448.366,560.996 462.919,459.473 468.609,433.256C469.026,431.334 469.898,430.032 470.876,428.77C471.881,427.471 473.125,426.113 474.432,425.006C475.742,423.896 477.281,423.188 478.817,422.471C480.354,421.753 482.329,421.342 483.86,421.161C485.262,420.994 487.27,420.872 488.674,421.026C490.571,421.234 492.202,421.356 494.817,422.616Z" style="fill:rgb(249,102,9);"/>
    </g>
</svg>
