<svg xmlns="http://www.w3.org/2000/svg" viewBox="0 0 1289 317" width="322" height="79" role="img" aria-label="Strido">
  <g transform="translate(0,317) scale(0.1,-0.1)">
    <path fill="#26180f" d="M9932 2768 c-46 -12 -61 -38 -78 -139 -9 -52 -24 -123 -34 -159 -9&#xA;-36 -27 -103 -39 -150 -12 -47 -31 -116 -41 -155 -11 -38 -22 -97 -25 -130&#xA;-11 -113 -57 -125 -146 -36 -45 44 -78 66 -137 91 -70 30 -91 33 -232 42 -258&#xA;15 -542 -7 -621 -48 -18 -9 -56 -24 -86 -35 -70 -24 -170 -96 -239 -172 -75&#xA;-84 -145 -230 -183 -384 -16 -65 -41 -158 -55 -208 -15 -49 -33 -128 -41 -175&#xA;-8 -47 -24 -137 -35 -200 -34 -180 -19 -281 56 -381 84 -111 227 -188 389&#xA;-211 51 -7 161 -9 300 -5 216 6 222 6 328 40 83 27 130 50 206 101 55 36 108&#xA;66 118 66 32 0 43 -20 36 -66 -15 -108 6 -117 262 -117 254 -1 257 1 284 143&#xA;6 30 19 88 31 129 11 41 31 133 45 205 14 72 34 163 45 201 21 76 64 244 87&#xA;340 8 33 39 159 68 280 30 121 57 243 61 270 3 28 17 79 30 114 13 35 24 75&#xA;24 90 0 14 11 78 25 141 14 63 37 169 50 235 14 66 35 143 46 172 11 29 18 60&#xA;15 71 -15 45 -27 47 -262 47 -123 0 -237 -3 -252 -7z m-553 -1108 c70 -13 102&#xA;-38 138 -107 40 -77 46 -113 28 -188 -7 -34 -19 -98 -24 -143 -14 -113 -61&#xA;-230 -123 -303 -27 -33 -57 -63 -66 -66 -10 -3 -43 -22 -75 -41 -56 -34 -61&#xA;-35 -190 -41 -210 -10 -343 0 -401 28 -65 32 -113 82 -122 127 -7 41 11 188&#xA;32 245 7 20 18 72 24 115 18 119 70 231 135 293 61 58 86 70 165 81 83 11 420&#xA;11 479 0z M1310 2758 c-62 -6 -113 -18 -148 -33 -29 -13 -68 -27 -88 -31 -45&#xA;-8 -181 -98 -250 -164 -62 -60 -158 -229 -169 -300 -4 -25 -18 -76 -31 -115&#xA;-31 -89 -46 -223 -38 -339 8 -122 43 -195 132 -277 75 -68 124 -89 290 -123&#xA;187 -39 256 -46 747 -76 183 -11 285 -34 345 -75 117 -81 120 -188 8 -309 -52&#xA;-56 -71 -69 -140 -96 l-80 -30 -341 -6 -342 -6 -75 25 c-146 49 -160 63 -168&#xA;182 -7 111 9 105 -299 105 l-264 0 -24 -24 c-17 -17 -25 -39 -30 -82 -3 -33&#xA;-10 -86 -15 -120 -22 -135 -6 -235 47 -303 16 -20 36 -47 45 -61 8 -14 53 -48&#xA;98 -74 65 -39 106 -54 202 -77 l120 -29 587 0 586 0 150 34 c197 45 296 91&#xA;397 185 80 75 155 193 188 298 10 32 26 77 34 101 27 72 49 248 44 353 -4 75&#xA;-10 107 -31 153 -32 70 -133 178 -201 215 -27 14 -58 31 -70 38 -12 7 -100 25&#xA;-196 42 -225 38 -230 38 -455 56 -104 8 -226 20 -270 26 -114 16 -291 60 -326&#xA;81 -37 22 -59 72 -59 131 0 37 8 54 49 108 27 36 73 82 104 103 52 36 60 38&#xA;168 48 133 11 599 4 678 -12 98 -18 131 -56 142 -158 11 -104 6 -102 294 -96&#xA;254 6 297 12 320 48 17 26 31 245 21 328 -9 69 -46 130 -133 215 -46 45 -77&#xA;66 -116 79 -28 9 -65 23 -82 32 -63 32 -252 42 -765 40 -272 0 -538 -5 -590&#xA;-10z M3810 2523 c-184 -3 -218 -6 -237 -21 -24 -18 -67 -148 -84 -256 -11 -68&#xA;-31 -110 -56 -122 -10 -4 -57 -10 -106 -14 -111 -8 -118 -14 -147 -145 -12&#xA;-55 -28 -122 -36 -149 -31 -111 -14 -146 73 -146 62 0 119 -23 128 -51 4 -10&#xA;-3 -47 -14 -81 -25 -81 -65 -242 -96 -388 -13 -63 -38 -167 -54 -230 -47 -176&#xA;-41 -296 18 -388 32 -48 114 -127 157 -150 11 -6 66 -22 121 -36 98 -25 113&#xA;-26 398 -26 283 0 302 1 408 26 96 22 124 33 199 81 101 64 203 166 238 239&#xA;23 48 81 226 101 312 9 35 8 47 -5 67 l-16 25 -215 0 c-252 0 -249 1 -290&#xA;-115 -19 -53 -37 -81 -73 -117 -61 -58 -96 -68 -240 -68 -144 0 -171 11 -207&#xA;84 l-25 52 25 136 c14 74 32 155 41 179 8 24 28 111 44 192 34 172 51 215 100&#xA;240 33 17 62 18 483 12 l448 -6 34 34 c22 22 36 47 40 73 11 68 44 227 57 273&#xA;12 41 11 44 -11 62 -22 18 -44 19 -449 16 -235 -2 -438 -1 -451 2 -13 4 -33&#xA;18 -44 33 l-20 26 32 134 c35 148 37 167 19 191 -17 22 -37 24 -288 20z M6251&#xA;2124 c-89 -15 -188 -63 -263 -126 -26 -21 -48 -31 -75 -32 -37 -1 -38 0 -36&#xA;34 1 19 5 49 8 66 13 59 7 60 -307 56 -238 -3 -230 2 -263 -163 -13 -62 -30&#xA;-143 -39 -179 -8 -36 -36 -150 -60 -255 -25 -104 -55 -239 -66 -300 -12 -60&#xA;-29 -144 -39 -185 -10 -41 -26 -118 -36 -170 -10 -52 -28 -130 -41 -174 -13&#xA;-43 -26 -101 -30 -130 -3 -28 -14 -72 -25 -98 -25 -60 -24 -90 2 -114 19 -17&#xA;40 -19 238 -20 279 -2 293 5 311 137 5 41 24 126 41 189 17 63 44 167 59 230&#xA;102 409 160 592 204 640 78 85 99 98 201 125 173 46 330 23 365 -53 7 -17 9&#xA;-50 5 -97 -6 -61 -4 -74 12 -94 19 -24 22 -24 229 -27 232 -3 254 2 278 59 28&#xA;66 60 225 64 323 4 96 3 103 -26 160 -43 85 -135 162 -228 190 -73 22 -374 27&#xA;-483 8z M11460 2120 l-375 -6 -130 -45 c-117 -41 -139 -52 -209 -109 -95 -78&#xA;-152 -149 -205 -253 -46 -91 -118 -318 -157 -497 -15 -69 -33 -152 -40 -185&#xA;-21 -92 -29 -290 -15 -357 17 -81 76 -167 153 -223 77 -56 139 -80 291 -111&#xA;115 -24 124 -24 483 -19 474 6 626 28 803 114 82 39 109 59 182 134 50 50 100&#xA;112 118 147 37 69 115 303 125 375 4 28 18 91 31 140 49 183 74 416 56 524&#xA;-14 87 -50 157 -114 223 -45 47 -66 59 -162 96 -60 23 -121 44 -135 47 -44 9&#xA;-313 10 -700 5z m341 -450 c86 -16 108 -29 147 -89 31 -48 37 -66 40 -128 3&#xA;-54 -1 -87 -17 -135 -11 -35 -29 -110 -40 -168 -33 -185 -134 -341 -238 -369&#xA;-51 -14 -320 -20 -505 -11 -165 7 -202 21 -234 88 -41 85 -22 238 66 520 33&#xA;107 45 128 107 195 53 58 81 72 174 91 88 17 419 21 500 6z M7371 2104 c-42&#xA;-18 -50 -35 -81 -180 -17 -77 -37 -159 -45 -184 -8 -25 -26 -110 -40 -190 -15&#xA;-80 -41 -206 -60 -280 -18 -74 -36 -157 -40 -185 -4 -27 -13 -65 -21 -85 -7&#xA;-19 -23 -78 -34 -130 -50 -224 -72 -319 -92 -386 -20 -68 -20 -72 -3 -107 23&#xA;-50 54 -58 174 -48 54 5 136 7 183 4 134 -9 200 25 213 110 3 23 14 71 25 107&#xA;10 36 27 106 39 155 11 50 41 176 66 280 26 105 64 273 85 375 21 102 46 217&#xA;54 255 9 39 16 81 16 95 0 25 21 106 67 257 24 78 24 84 9 108 -9 13 -26 27&#xA;-39 30 -49 10 -450 10 -476 -1z"></path>
  </g>
  <path fill="#ea580c" stroke="#ea580c" stroke-width="10" stroke-linejoin="round" d="M742 81 L787.7 81 L800 37 L754.3 37 Z"></path>
</svg>